<?xml version="1.0" encoding="UTF-8"?>
<svg width="172px" height="55px" viewBox="0 0 172 55" version="1.1" xmlns="http://www.w3.org/2000/svg" xmlns:xlink="http://www.w3.org/1999/xlink">
    <!-- Generator: Sketch 60 (88103) - https://sketch.com -->
    <title>countstar-logo-en001</title>
    <desc>Created with Sketch.</desc>
    <defs>
        <radialGradient cx="50.0001991%" cy="49.9893199%" fx="50.0001991%" fy="49.9893199%" r="50.014953%" gradientTransform="translate(0.500002,0.499893),scale(1.000000,0.999589),rotate(-0.011459),translate(-0.500002,-0.499893)" id="radialGradient-1">
            <stop stop-color="#FFE100" offset="0%"></stop>
            <stop stop-color="#F7B000" offset="100%"></stop>
        </radialGradient>
        <radialGradient cx="49.9876059%" cy="50.0000517%" fx="49.9876059%" fy="50.0000517%" r="49.9949048%" gradientTransform="translate(0.499876,0.500001),scale(1.000000,0.999960),rotate(-0.011459),translate(-0.499876,-0.500001)" id="radialGradient-2">
            <stop stop-color="#FFE100" offset="0%"></stop>
            <stop stop-color="#F7B000" offset="100%"></stop>
        </radialGradient>
        <radialGradient cx="49.9984748%" cy="50.0069956%" fx="49.9984748%" fy="50.0069956%" r="50.0291771%" gradientTransform="translate(0.499985,0.500070),scale(1.000000,0.999094),rotate(-0.011459),translate(-0.499985,-0.500070)" id="radialGradient-3">
            <stop stop-color="#FFE100" offset="0%"></stop>
            <stop stop-color="#F7B000" offset="100%"></stop>
        </radialGradient>
        <linearGradient x1="50.5879211%" y1="-5.59985444%" x2="49.5643602%" y2="125.682665%" id="linearGradient-4">
            <stop stop-color="#0059A5" offset="0%"></stop>
            <stop stop-color="#004A8D" offset="14.56%"></stop>
            <stop stop-color="#013A75" offset="34.43%"></stop>
            <stop stop-color="#052F65" offset="54.95%"></stop>
            <stop stop-color="#08295C" offset="76.35%"></stop>
            <stop stop-color="#082759" offset="100%"></stop>
        </linearGradient>
        <linearGradient x1="50.8377186%" y1="-38.3959195%" x2="49.2962387%" y2="124.464894%" id="linearGradient-5">
            <stop stop-color="#0059A5" offset="0%"></stop>
            <stop stop-color="#004A8D" offset="14.56%"></stop>
            <stop stop-color="#013A75" offset="34.43%"></stop>
            <stop stop-color="#052F65" offset="54.95%"></stop>
            <stop stop-color="#08295C" offset="76.35%"></stop>
            <stop stop-color="#082759" offset="100%"></stop>
        </linearGradient>
        <linearGradient x1="50.9189002%" y1="-57.9087038%" x2="49.227365%" y2="138.688416%" id="linearGradient-6">
            <stop stop-color="#0059A5" offset="0%"></stop>
            <stop stop-color="#004A8D" offset="14.56%"></stop>
            <stop stop-color="#013A75" offset="34.43%"></stop>
            <stop stop-color="#052F65" offset="54.95%"></stop>
            <stop stop-color="#08295C" offset="76.35%"></stop>
            <stop stop-color="#082759" offset="100%"></stop>
        </linearGradient>
        <linearGradient x1="50.9144811%" y1="-55.3900557%" x2="49.2304653%" y2="140.793343%" id="linearGradient-7">
            <stop stop-color="#0059A5" offset="0%"></stop>
            <stop stop-color="#004A8D" offset="14.56%"></stop>
            <stop stop-color="#013A75" offset="34.43%"></stop>
            <stop stop-color="#052F65" offset="54.95%"></stop>
            <stop stop-color="#08295C" offset="76.35%"></stop>
            <stop stop-color="#082759" offset="100%"></stop>
        </linearGradient>
        <linearGradient x1="50.4592104%" y1="-20.1052521%" x2="49.6556948%" y2="129.221357%" id="linearGradient-8">
            <stop stop-color="#0059A5" offset="0%"></stop>
            <stop stop-color="#004A8D" offset="14.56%"></stop>
            <stop stop-color="#013A75" offset="34.43%"></stop>
            <stop stop-color="#052F65" offset="54.95%"></stop>
            <stop stop-color="#08295C" offset="76.35%"></stop>
            <stop stop-color="#082759" offset="100%"></stop>
        </linearGradient>
        <linearGradient x1="50.4775687%" y1="-11.5904491%" x2="49.8537827%" y2="97.8089528%" id="linearGradient-9">
            <stop stop-color="#0059A5" offset="0%"></stop>
            <stop stop-color="#004A8D" offset="14.56%"></stop>
            <stop stop-color="#013A75" offset="34.43%"></stop>
            <stop stop-color="#052F65" offset="54.95%"></stop>
            <stop stop-color="#08295C" offset="76.35%"></stop>
            <stop stop-color="#082759" offset="100%"></stop>
        </linearGradient>
        <linearGradient x1="50.2997072%" y1="5.4415937%" x2="49.8113479%" y2="98.0488897%" id="linearGradient-10">
            <stop stop-color="#0059A5" offset="0%"></stop>
            <stop stop-color="#004A8D" offset="14.56%"></stop>
            <stop stop-color="#013A75" offset="34.43%"></stop>
            <stop stop-color="#052F65" offset="54.95%"></stop>
            <stop stop-color="#08295C" offset="76.35%"></stop>
            <stop stop-color="#082759" offset="100%"></stop>
        </linearGradient>
        <linearGradient x1="50.680938%" y1="-11.520865%" x2="49.8938986%" y2="97.7668094%" id="linearGradient-11">
            <stop stop-color="#0059A5" offset="0%"></stop>
            <stop stop-color="#004A8D" offset="14.56%"></stop>
            <stop stop-color="#013A75" offset="34.43%"></stop>
            <stop stop-color="#052F65" offset="54.95%"></stop>
            <stop stop-color="#08295C" offset="76.35%"></stop>
            <stop stop-color="#082759" offset="100%"></stop>
        </linearGradient>
        <linearGradient x1="50.1165979%" y1="-12.7077667%" x2="49.4087961%" y2="99.7710347%" id="linearGradient-12">
            <stop stop-color="#0059A5" offset="0%"></stop>
            <stop stop-color="#004A8D" offset="14.56%"></stop>
            <stop stop-color="#013A75" offset="34.43%"></stop>
            <stop stop-color="#052F65" offset="54.95%"></stop>
            <stop stop-color="#08295C" offset="76.35%"></stop>
            <stop stop-color="#082759" offset="100%"></stop>
        </linearGradient>
    </defs>
    <g id="pc端" stroke="none" stroke-width="1" fill="none" fill-rule="evenodd">
        <g id="01首页" transform="translate(-360.000000, -62.000000)" fill-rule="nonzero">
            <g id="编组-23备份-4">
                <g id="编组-8" transform="translate(0.000000, 50.000000)">
                    <g id="countstar-logo-en001" transform="translate(360.000000, 12.000000)">
                        <g id="编组">
                            <path d="M100.570883,22.0214038 C102.287387,24.3670257 103.307505,27.2538568 103.302919,30.3814802 C103.307505,33.5133079 102.28968,36.4051077 100.570883,38.7461432 C102.914211,37.0296386 105.803336,36.0076095 108.933252,36.0076095 C112.060876,36.0076095 114.95,37.0250521 117.288742,38.7419388 C115.577206,36.4009034 114.554413,33.5094858 114.554413,30.3772759 C114.55212,27.2542391 115.569944,24.3674079 117.288742,22.0221682 C114.95,23.7386727 112.058582,24.7564976 108.930959,24.7564976 C105.803718,24.7599375 102.914211,23.7421126 100.570883,22.0214038 Z" id="路径" fill="url(#radialGradient-1)"></path>
                            <path d="M120.990063,8.78509382 C121.9754,10.1266505 122.560563,11.7873523 122.560563,13.5780056 C122.560563,15.3778318 121.977693,17.0385337 120.990063,18.3804726 C122.336588,17.3901668 123.999583,16.8072967 125.790236,16.8072967 C127.582801,16.8072967 129.243885,17.3901668 130.590028,18.3755038 C129.604691,17.0339472 129.021821,15.3728631 129.021821,13.5776233 C129.019527,11.7827658 129.600104,10.1262682 130.585823,8.78012509 C129.244267,9.76546213 127.590063,10.3483322 125.790618,10.3533009 C123.996908,10.3533009 122.336206,9.76584434 120.990063,8.78509382 Z" id="路径" fill="url(#radialGradient-2)"></path>
                            <path d="M112.225226,0.031723419 C112.741209,0.734607366 113.050799,1.60948575 113.050799,2.55774844 C113.050799,3.5014246 112.745413,4.3805073 112.225226,5.08835997 C112.933079,4.56549687 113.805281,4.26011119 114.753544,4.26011119 C115.701807,4.26011119 116.571716,4.56549687 117.281862,5.08835997 C116.765879,4.37592078 116.4582,3.5014246 116.4582,2.55316192 C116.453614,1.60948575 116.763586,0.734989576 117.281862,0.0271369006 C116.576303,0.545413482 115.701807,0.855385685 114.753544,0.855385685 C113.802606,0.855003475 112.930785,0.545413482 112.225226,0.031723419 Z" id="路径" fill="url(#radialGradient-3)"></path>
                            <path d="M22.7533356,31.2047603 L22.7510424,36.6179986 C19.8363099,38.2695274 16.7828353,39.088221 13.586032,39.0931897 C9.44555247,39.0931897 6.15128562,37.8720292 3.69444058,35.4430855 C1.23797776,33.0095552 0.0095552467,30.011501 0.0095552467,26.4489229 C0.0095552467,22.8867269 1.30486449,19.8561849 3.89318972,17.3718207 C6.47692842,14.88287 9.85681028,13.6380125 14.0320709,13.633426 C17.3584434,13.6380125 20.1780056,14.3645935 22.4823489,15.8219597 L22.4823489,21.3460389 C19.6509382,19.6528492 16.9769979,18.8058721 14.4505907,18.8058721 C11.9685198,18.8058721 9.93745657,19.5137248 8.36466296,20.9294302 C6.79186935,22.349722 6.00260598,24.1495483 6.00528145,26.3376998 C6.00528145,28.5399931 6.78040306,30.3581654 8.33485059,31.792599 C9.88929812,33.2266505 11.8809937,33.9390896 14.3053509,33.9390896 C15.5081654,33.9345031 16.6647325,33.7678596 17.7773454,33.4303683 C18.8926338,33.0924948 20.5491313,32.3521543 22.7533356,31.2047603 Z" id="路径" fill="url(#linearGradient-4)"></path>
                            <path d="M33.7460737,21.6418694 C36.3714732,21.6418694 38.6016678,22.409729 40.4313065,23.9550035 C42.2636206,25.4911049 43.1771022,27.6375956 43.1820709,30.3856845 C43.1820709,33.1525017 42.2521543,35.2898193 40.3896456,36.8071925 C38.5343989,38.3249479 36.3183461,39.0836538 33.7529534,39.0836538 C30.9677901,39.088221 28.6913482,38.2783183 26.9217165,36.6546908 C25.1497915,35.0448228 24.263829,32.9441974 24.2661179,30.3581654 C24.2661179,27.725886 25.1635511,25.6160876 26.9725504,24.0245657 C28.7750521,22.4376303 31.0373523,21.6464559 33.7460737,21.6418694 Z M33.7483669,35.9564017 C36.2743919,35.9609798 37.533009,34.0548992 37.5307189,30.2473245 C37.5307189,26.6063933 36.2724809,24.788221 33.7464559,24.788221 C32.5413482,24.788221 31.599583,25.2694232 30.914663,26.2272411 C30.2347116,27.1896456 29.8922516,28.5678944 29.8949115,30.3539611 C29.8945448,34.0919736 31.180681,35.9609798 33.7483669,35.9564017 Z" id="形状" fill="url(#linearGradient-5)"></path>
                            <path d="M56.8254343,38.7553162 L56.8231411,36.3634468 C55.2732801,38.1724461 53.4688673,39.0790757 51.4102849,39.0790757 C49.5829395,39.0836345 48.1022585,38.5191105 46.9640375,37.3950313 C45.8304031,36.2709521 45.2616748,34.7161223 45.2593815,32.7221334 L45.254795,21.998089 L50.5312022,21.9935024 L50.5334955,32.3525365 C50.5334955,34.480681 51.419458,35.5493398 53.1867964,35.5447533 C54.1771022,35.5447533 55.0259903,35.1564281 55.7311675,34.3835997 C56.4367269,33.6065671 56.7860667,33.0374566 56.7860667,32.6720639 L56.7837735,21.9892981 L62.0949618,21.9892981 L62.1022238,38.7556984 L56.8254343,38.7556984 L56.8254343,38.7553162 Z" id="路径" fill="url(#linearGradient-6)"></path>
                            <path d="M70.2861015,21.9889159 L70.2815149,24.3670257 C71.831376,22.5442669 73.6518416,21.6326963 75.7383252,21.6326963 C77.4781445,21.6326963 78.930542,22.1880473 80.0962821,23.3029534 C81.2620222,24.4178596 81.8475678,26.0093815 81.8452745,28.0821056 L81.849861,38.7507297 L76.5730716,38.7507297 L76.5776581,28.5262335 C76.5730716,26.2868659 75.7008687,25.1673732 73.9637248,25.1624044 C72.7192495,25.166991 71.490827,26.0877345 70.2880125,27.9383947 L70.2880125,38.7507297 L65.0161918,38.7553162 L65.009312,21.9889159 L70.2861015,21.9889159 L70.2861015,21.9889159 Z" id="路径" fill="url(#linearGradient-7)"></path>
                            <path d="M96.8026755,21.9797429 L96.8049687,25.5881862 L90.695344,25.5881862 L90.695344,32.5000695 C90.6976372,33.3283183 90.9223767,33.9803683 91.3848506,34.4573662 C91.8358582,34.9385685 92.4672689,35.1789785 93.2722029,35.1789785 C94.35959,35.1789785 95.5371786,34.8552467 96.8068798,34.1982279 L96.8068798,38.0195622 C95.1274496,38.7182418 93.4969423,39.0652884 91.9214732,39.0694927 C89.8605976,39.0694927 88.264107,38.5374566 87.1262682,37.4687978 C85.9903405,36.4047255 85.4189368,34.8456915 85.4239055,32.7821404 L85.419319,25.587804 L83.0228631,25.587804 L83.0182766,24.5608061 L90.0345031,16.7048645 L90.6957262,16.7048645 L90.6911397,21.983565 L96.8026755,21.9797429 Z" id="路径" fill="url(#linearGradient-8)"></path>
                            <path d="M120.265775,37.5708478 L120.258895,34.0919736 C121.175052,34.7256776 122.104969,35.2439541 123.060111,35.6418346 C124.013343,36.0397151 124.815983,36.2338777 125.468033,36.2338777 C126.136901,36.2338777 126.723975,36.0672342 127.203266,35.7389159 C127.691348,35.4102154 127.936345,35.0077484 127.931758,34.5452745 C127.936345,34.0732453 127.778874,33.6799514 127.466609,33.3699792 C127.15205,33.0508339 126.472099,32.6021195 125.430959,32.0051077 C123.344475,30.8485407 121.981897,29.8586171 121.334051,29.0349548 C120.688881,28.2112926 120.362474,27.3138638 120.369354,26.3422863 C120.362474,25.0836692 120.850556,24.0612578 121.829013,23.2700834 C122.810146,22.4743224 124.065705,22.0810285 125.601807,22.0810285 C127.197915,22.0810285 128.840271,22.5297429 130.524288,23.4271716 L130.519701,26.623975 C128.606741,25.4628214 127.040827,24.8841557 125.816991,24.8841557 C125.190167,24.8841557 124.681063,25.0183113 124.295031,25.2820361 C123.91779,25.5503475 123.721334,25.9065671 123.721334,26.3415219 C123.721334,26.7256428 123.894858,27.0860667 124.241904,27.428909 C124.598124,27.771369 125.206602,28.1875956 126.083009,28.6687978 L127.237283,29.3258165 C129.962439,30.8665045 131.325017,32.5692495 131.327311,34.4378735 C131.327311,35.7798124 130.802154,36.8759903 129.754135,37.7321404 C128.711084,38.592877 127.359972,39.0228631 125.71303,39.0228631 C124.746039,39.0228631 123.878423,38.9208131 123.119736,38.7128909 C122.361814,38.5099375 121.408582,38.1261987 120.265775,37.5708478 Z" id="路径" fill="url(#linearGradient-9)"></path>
                            <path d="M131.309347,24.9915566 L137.383808,19.0233495 L137.379222,22.3963516 L142.551668,22.3913829 L142.551668,25.3061154 L137.383808,25.3107019 L137.383808,33.3053857 C137.386101,35.1743919 138.163516,36.1088951 139.713377,36.1088951 C140.869944,36.1043085 142.10066,35.7205698 143.386796,34.952328 L143.391383,37.9733148 C142.146908,38.6674079 140.786623,39.019041 139.320083,39.019041 C137.839402,39.019041 136.613655,38.5890549 135.630612,37.7237318 C135.320639,37.4645935 135.063794,37.1729673 134.864663,36.8446491 C134.663621,36.5209173 134.489715,36.0951355 134.358235,35.5676859 C134.221404,35.0448228 134.154517,34.036171 134.152224,32.5558721 L134.152224,25.3107019 L131.309347,25.3107019 L131.309347,24.9915566 L131.309347,24.9915566 Z" id="路径" fill="url(#linearGradient-10)"></path>
                            <path d="M156.010042,28.4520848 L156.014628,35.8543433 C156.012335,36.4096942 156.2,36.6871786 156.579152,36.6917651 C156.96786,36.6871786 157.583218,36.4005212 158.409173,35.8172689 L158.409173,37.787943 C157.680681,38.2645587 157.088256,38.583704 156.644128,38.754934 C156.2,38.926164 155.732557,39.0140723 155.244475,39.0140723 C153.863551,39.0140723 153.046769,38.4682766 152.799479,37.385476 C151.423141,38.4449618 149.961188,38.9769979 148.411327,38.9815844 C147.2754,38.9815844 146.359625,38.5699444 145.56845,37.8529187 C144.726442,37.0846769 144.434816,35.8726894 144.432523,34.5678249 C144.432523,33.5362404 144.800591,32.6204656 145.540549,31.8059764 C146.282801,30.9918694 147.33082,30.3486101 148.695691,29.8769632 L152.829291,28.4566713 L152.833878,28.0400625 C152.826616,26.0735928 151.846247,25.0882557 149.882071,25.0882557 C148.119319,25.0928423 146.402814,26.0044128 144.727971,27.8267894 L144.730264,24.5512509 C145.986206,23.0709521 147.792912,22.0714732 150.150382,22.076044 C151.913134,22.076044 153.321577,22.5343294 154.387943,23.4546908 C154.746456,23.7509034 155.067894,24.1487839 155.352259,24.6391591 C155.634712,25.1295344 155.815115,25.6199097 155.89385,26.1102849 C155.970674,26.6014246 156.010042,27.0826268 156.010042,28.4520848 Z M152.833878,35.5030924 L152.829291,30.1964906 L150.666366,31.0247394 C149.565219,31.4688673 148.7836,31.9129951 148.329917,32.357123 C147.876616,32.8012509 147.644997,33.3520153 147.644997,34.0182071 C147.644997,34.6889854 147.739785,35.4801598 148.295136,36.123419 C148.690341,36.5813065 149.287352,36.7617095 149.974183,36.7617095 C151.006532,36.7613273 151.95747,36.340132 152.833878,35.5030924 Z" id="形状" fill="url(#linearGradient-11)"></path>
                            <path d="M163.271265,22.3867964 L163.275851,26.1339819 L163.453961,25.8515288 C165.012995,23.3300903 166.576616,22.178492 168.140618,22.178492 C169.362161,22.178492 170.631862,22.6176511 171.957366,23.8533356 L170.255003,26.7539263 C169.130924,25.6944406 168.087491,25.1578179 167.12738,25.1578179 C166.08624,25.1578179 165.186518,25.6573662 164.420952,26.6518763 C163.655003,27.6421821 163.275851,28.8216817 163.278145,30.1865532 L163.278145,38.7270327 L160.027832,38.7270327 L160.025539,22.3864142 L163.271265,22.3864142 L163.271265,22.3867964 Z" id="路径" fill="url(#linearGradient-12)"></path>
                        </g>
                        <g id="编组" transform="translate(20.104239, 42.960389)" fill="#072859">
                            <path d="M6.35806115,2.01921473 C6.25983322,1.77612926 6.11917999,1.5804378 5.93610146,1.43099375 C5.75264072,1.2819319 5.52904795,1.1775886 5.26494093,1.11758165 C5.0004517,1.05833912 4.71073662,1.02814454 4.39541348,1.02814454 C4.17373176,1.02814454 3.93943711,1.05604587 3.69214732,1.1114663 C3.44485754,1.16688673 3.21667825,1.25441279 3.00799166,1.37366227 C2.79892286,1.49329395 2.62654621,1.64656011 2.49009729,1.83384295 C2.35364837,2.02150799 2.28561501,2.25159833 2.28561501,2.52411397 C2.28561501,2.74579569 2.323836,2.93537179 2.40066018,3.09322446 C2.47748436,3.25107714 2.58182766,3.38714385 2.71407227,3.50257123 C2.84631689,3.6176164 3.00378735,3.71355108 3.18724809,3.78999305 C3.37032662,3.86681723 3.56448923,3.9352328 3.76897151,3.99485754 L4.99624739,4.32738013 C5.27755386,4.40420431 5.55006949,4.49975678 5.81455872,4.61518416 C6.07866574,4.73022933 6.31296039,4.87967338 6.51782488,5.06275191 C6.72230716,5.24621265 6.88627519,5.47821404 7.01011119,5.7595205 C7.13356498,6.04082696 7.19548297,6.38596247 7.19548297,6.79530924 C7.19548297,7.27307158 7.08693537,7.68394719 6.86945796,8.0290827 C6.65198054,8.37421821 6.37296734,8.65972898 6.03203614,8.88561501 C5.69110493,9.11150104 5.30965949,9.27967338 4.88769979,9.39051425 C4.4657401,9.50135511 4.05027797,9.55677554 3.64131341,9.55677554 C3.09551772,9.55677554 2.59291174,9.49485754 2.13273106,9.37140375 C1.67255038,9.24794997 1.28269632,9.05799166 0.962786657,8.80229326 C0.643259208,8.54659486 0.400173732,8.21636553 0.233912439,7.81122307 C0.0676511466,7.40646282 0.00573314802,6.92296734 0.0485406532,6.36035441 L1.26320361,6.36035441 C1.24600417,6.76970118 1.29301598,7.11445448 1.40385685,7.39614315 C1.51469771,7.67744962 1.67866574,7.90333565 1.89614315,8.07380125 C2.11362057,8.24426685 2.37543433,8.36580959 2.68234885,8.43804726 C2.98926338,8.51066713 3.32599027,8.54697707 3.69252953,8.54697707 C3.973836,8.54697707 4.2528492,8.51296039 4.52995136,8.44454482 C4.8066713,8.37651147 5.05205003,8.27178596 5.26532314,8.13151494 C5.47821404,7.99086171 5.6509729,7.81007644 5.78321751,7.58801251 C5.91507992,7.36633079 5.98158443,7.10222377 5.98158443,6.79530924 C5.98158443,6.5652189 5.93877693,6.36723419 5.85354413,6.2009729 C5.76831133,6.03471161 5.6509729,5.89405837 5.50191105,5.7790132 C5.35246699,5.66396803 5.18009034,5.56803336 4.98401668,5.49159138 C4.78794302,5.4147672 4.57925643,5.34673384 4.3575747,5.28672689 L3.11730368,4.95458652 C2.84440584,4.87776233 2.58450313,4.77762335 2.33721334,4.65378735 C2.08992356,4.53071577 1.87244614,4.37706741 1.68516331,4.19360667 C1.49749826,4.01052814 1.34843641,3.79305073 1.23759555,3.54155664 C1.12675469,3.29006254 1.07133426,2.9938499 1.07133426,2.65291869 C1.07133426,2.20993746 1.16917999,1.82390549 1.36563586,1.49558721 C1.56170952,1.16765115 1.81511466,0.892842252 2.1262335,0.671160528 C2.43735233,0.449478805 2.79127867,0.283217512 3.1876303,0.17237665 C3.58398193,0.0619179986 3.98683113,0.00611535789 4.39579569,0.00611535789 C4.84756776,0.00611535789 5.27564281,0.0638290479 5.68078527,0.178874218 C6.08554552,0.293919388 6.4413829,0.468971508 6.74829743,0.703266157 C7.05521195,0.937560806 7.29600417,1.23797776 7.47067408,1.60451703 C7.64534399,1.97105629 7.72407922,2.41021543 7.70726199,2.92123002 L6.49259903,2.92123002 C6.50062543,2.56271716 6.45590688,2.26230021 6.35806115,2.01921473 Z" id="路径"></path>
                            <path d="M11.7728284,2.74159138 L11.5297429,3.72578179 L11.5553509,3.75138985 C11.8366574,3.39325921 12.1752953,3.1100417 12.571647,2.90135511 C12.9679986,2.69266852 13.3964559,2.58794302 13.8566366,2.58794302 C14.2743919,2.58794302 14.6321404,2.67738013 14.9306463,2.85625434 C15.22877,3.03512856 15.4248436,3.34204309 15.5188673,3.77699792 C15.7745657,3.41886727 16.104795,3.13144545 16.5095552,2.91358582 C16.9143155,2.69610841 17.3385685,2.58794302 17.7819319,2.58794302 C18.0120222,2.58794302 18.2379083,2.61584434 18.45959,2.67126477 C18.6808895,2.7266852 18.8792564,2.811918 19.0539263,2.92696317 C19.2285962,3.04200834 19.3669562,3.19336345 19.4693885,3.38102849 C19.5718207,3.56831133 19.6226546,3.79878388 19.6226546,4.07129951 C19.6226546,4.26737318 19.6012509,4.4890549 19.5588256,4.73596247 C19.5160181,4.98325226 19.4735928,5.20072967 19.4307853,5.38801251 L18.599861,9.35152884 L17.5132384,9.35152884 L18.4335997,5.15792217 C18.4592078,5.05548992 18.4825226,4.9343294 18.5039263,4.79367616 C18.5253301,4.65264072 18.536032,4.5356845 18.536032,4.44204309 C18.536032,4.18634468 18.4400973,3.97345379 18.2482279,3.80260598 C18.0563586,3.63252259 17.8155664,3.54690757 17.5258513,3.54690757 C17.3725851,3.54690757 17.2170257,3.57251564 17.059173,3.62373176 C16.9013204,3.67494788 16.7499653,3.74107019 16.6054899,3.82209868 C16.4602502,3.90312717 16.3241835,3.99906185 16.1961432,4.10990271 C16.0681028,4.22074357 15.957262,4.33578874 15.8636206,4.45503822 C15.6847464,4.65111188 15.5525017,4.87699792 15.4672689,5.13269632 C15.3820361,5.38839472 15.3094163,5.65708826 15.2497915,5.93839472 L14.5209173,9.35229326 L13.4342946,9.35229326 L14.2269979,5.58064628 C14.2866227,5.32494788 14.3355455,5.08606671 14.3741487,4.8647672 C14.4123697,4.64308548 14.4318624,4.49364142 14.4318624,4.41719944 C14.4318624,4.14468381 14.352745,3.9314107 14.1952745,3.77814454 C14.0374218,3.62449618 13.8096247,3.54767199 13.5111188,3.54767199 C13.2126129,3.54767199 12.9164003,3.633287 12.6224809,3.8033704 C12.3281793,3.97421821 12.0831828,4.16990966 11.8871091,4.39159138 C11.6570188,4.61327311 11.4991661,4.83724809 11.4139333,5.06275191 C11.3287005,5.28902015 11.2518763,5.56344684 11.1838429,5.88756081 L10.4423558,9.35229326 L9.36834607,9.35229326 L10.7618833,2.7423558 L11.7728284,2.7423558 L11.7728284,2.74159138 Z" id="路径"></path>
                            <path d="M22.6080959,3.78349548 C22.7827658,3.51518416 22.99795,3.29159138 23.2536484,3.11233495 C23.5093468,2.93307853 23.7990618,2.80121612 24.1231758,2.71598332 C24.4469076,2.63113273 24.7836345,2.58832523 25.1333565,2.58832523 C25.4570883,2.58832523 25.7640028,2.61393329 26.0541001,2.66514941 C26.3438151,2.71636553 26.5995136,2.80580264 26.8211953,2.93346074 C27.042877,3.06150104 27.219458,3.23387769 27.3517026,3.45135511 C27.483565,3.66845031 27.5500695,3.94325921 27.5500695,4.27578179 C27.5500695,4.46344684 27.5263725,4.66563586 27.4797429,4.88311327 C27.4327311,5.10059069 27.3880125,5.2985754 27.3455872,5.47783183 L26.9236275,7.28071577 C26.8980195,7.4171647 26.8617095,7.57081306 26.8146977,7.74089646 C26.7676859,7.91174427 26.7443711,8.07341904 26.7443711,8.2266852 C26.7443711,8.37995136 26.7741835,8.48658791 26.8338082,8.54621265 C26.8934329,8.60583739 26.9698749,8.63564976 27.0638985,8.63564976 C27.1151147,8.63564976 27.1724461,8.62494788 27.2366574,8.60354413 C27.3004864,8.58252259 27.3582001,8.56302988 27.4090341,8.54621265 L27.2427728,9.35191105 C27.15754,9.38592773 27.0486101,9.41765115 26.9167477,9.44784573 C26.7845031,9.4776581 26.671369,9.49256428 26.5777276,9.49256428 C26.2792217,9.49256428 26.0537179,9.41115358 25.9000695,9.2494788 C25.7464211,9.08780403 25.6867964,8.86153579 25.7208131,8.57182071 L25.695205,8.54621265 C25.4651147,8.85312717 25.1792217,9.08780403 24.8386727,9.2494788 C24.4977415,9.41115358 24.0459694,9.49256428 23.4833565,9.49256428 C23.20205,9.49256428 22.9398541,9.46045865 22.6971508,9.3966296 C22.4540653,9.33280056 22.2430855,9.226164 22.0642113,9.07710215 C21.885337,8.92804031 21.7423905,8.73617095 21.635754,8.5018763 C21.5291174,8.26758165 21.4759903,7.97977762 21.4759903,7.63884642 C21.4759903,7.15305768 21.5803336,6.77390549 21.7890202,6.50100764 C21.9977067,6.22849201 22.264107,6.02171647 22.588221,5.88106324 C22.9119527,5.74041001 23.2700834,5.64447533 23.6622307,5.59325921 C24.054378,5.54204309 24.4335302,5.49961779 24.8000695,5.46560111 C25.0897846,5.43999305 25.3389854,5.41247394 25.5480542,5.38227936 C25.7567408,5.35246699 25.9294997,5.30354413 26.0655664,5.23512856 C26.2020153,5.16709521 26.3021543,5.06886727 26.3659833,4.94120917 C26.4298124,4.81316887 26.461918,4.63849896 26.461918,4.41681723 C26.461918,4.23794302 26.4191105,4.09308548 26.3342599,3.98224461 C26.2490271,3.87140375 26.1423905,3.78387769 26.0147325,3.72004864 C25.8866921,3.6562196 25.7441279,3.61150104 25.5866574,3.58589298 C25.4288047,3.56028492 25.2774496,3.54728978 25.1325921,3.54728978 C24.9281098,3.54728978 24.7255386,3.56869354 24.5252606,3.61150104 C24.3249826,3.65430855 24.1438151,3.72463516 23.9817582,3.82248089 C23.8197012,3.92070883 23.6832523,4.04416261 23.5727936,4.19322446 C23.4619527,4.34266852 23.3893329,4.523836 23.3553162,4.73672689 L22.2686935,4.73672689 C22.3206741,4.36980542 22.433426,4.05218902 22.6080959,3.78349548 Z M22.9150104,8.31612231 C23.1580959,8.46938846 23.4329048,8.54621265 23.7398193,8.54621265 C24.6005559,8.54621265 25.2185893,8.25649757 25.5935372,7.6766852 C25.7724114,7.42939541 25.8939541,7.16108409 25.9577832,6.8709868 C26.0219944,6.58127172 26.0919388,6.28314802 26.168763,5.9762335 L26.143155,5.9762335 C25.9898888,6.08669215 25.7957262,6.16580959 25.5614315,6.2128214 C25.3271369,6.25983322 25.0775539,6.29576095 24.8134468,6.32136901 C24.5493398,6.34697707 24.2829395,6.37870049 24.014246,6.41730368 C23.7459347,6.45590688 23.5047603,6.51744267 23.2918694,6.60267547 C23.0785962,6.68790827 22.9039263,6.8090688 22.7674774,6.96692147 C22.6310285,7.12477415 22.5584086,7.34416261 22.55,7.62546908 C22.5507644,7.9323836 22.6723072,8.16247394 22.9150104,8.31612231 Z" id="形状"></path>
                            <path d="M31.8457262,2.74159138 L31.5261987,4.16073662 L31.5518068,4.16073662 C31.8075052,3.70896456 32.1335302,3.33401668 32.5298819,3.03551077 C32.9262335,2.73738707 33.4013204,2.58794302 33.9555247,2.58794302 C34.023558,2.58794302 34.0873871,2.58373871 34.147394,2.57494788 C34.2070188,2.56653926 34.2708478,2.57075762 34.3392634,2.58794302 L34.083565,3.75138985 C34.0495483,3.74298124 33.9941279,3.73877693 33.9173037,3.73877693 L33.7640375,3.73877693 C33.6275886,3.73877693 33.5167477,3.74107019 33.4315149,3.7452745 C33.3462821,3.7494788 33.2396456,3.7685893 33.1119875,3.80260598 C32.8134816,3.87943016 32.5470813,4.01167477 32.3131689,4.19895761 C32.078492,4.38662265 31.876303,4.61250869 31.7058374,4.87661571 C31.5609798,5.0895066 31.4459347,5.33908965 31.3607019,5.62460042 C31.2754691,5.91011119 31.2074357,6.17651147 31.1562196,6.42380125 L30.5297776,9.35152884 L29.4557679,9.35152884 L30.8240792,2.74159138 L31.8457262,2.74159138 Z" id="路径"></path>
                            <path d="M39.1845379,2.74159138 L38.9800556,3.70017373 L37.6629604,3.70017373 L36.8446491,7.58686588 C36.8362404,7.66369006 36.8274496,7.73630994 36.819041,7.80434329 C36.8106324,7.87275886 36.8064281,7.94499653 36.8064281,8.02182071 C36.8064281,8.19228631 36.8721682,8.30924253 37.004795,8.37345379 C37.1370396,8.43728284 37.2880125,8.46938846 37.4588603,8.46938846 C37.5697012,8.46938846 37.6759555,8.45868659 37.7783878,8.43728284 C37.88082,8.41626129 37.98287,8.38835997 38.0853023,8.35396108 L37.8934329,9.35152884 C37.7653926,9.36834607 37.6377345,9.38325226 37.5096942,9.39624739 C37.3820361,9.40924253 37.2539958,9.41535789 37.1263377,9.41535789 C36.9218555,9.41535789 36.7299861,9.4004517 36.5511119,9.37063933 C36.3722377,9.34082696 36.216296,9.28540653 36.0844336,9.20437804 C35.952189,9.12334955 35.8455525,9.01480195 35.7649062,8.87835302 C35.6838777,8.7419041 35.6433634,8.56723419 35.6433634,8.35396108 C35.6433634,8.26031967 35.649861,8.17088256 35.6624739,8.08564976 C35.6754691,8.00041696 35.6899931,7.90639333 35.7071925,7.80434329 L36.5767199,3.70017373 L35.4644892,3.70017373 L35.6689715,2.74159138 L36.7812022,2.74159138 L37.1901668,0.785059069 L38.2771716,0.785059069 L37.8678249,2.74159138 L39.1845379,2.74159138 Z" id="路径"></path>
                            <path d="M52.2698749,8.68036831 C51.6006254,9.26438499 50.7035789,9.55601112 49.578353,9.55601112 C48.3254691,9.55601112 47.3600069,9.20896456 46.6823489,8.51410702 C46.0046908,7.81963169 45.6660528,6.83735233 45.6660528,5.56726894 C45.6660528,4.82578179 45.781098,4.12060459 46.0111883,3.45135511 C46.2412787,2.78210563 46.571508,2.19197359 47.0018763,1.68057679 C47.4322446,1.16917999 47.9585476,0.762126477 48.5807853,0.459798471 C49.2030229,0.157088256 49.9020848,0.00573314802 50.6775886,0.00573314802 C51.171786,0.00573314802 51.6300556,0.0718554552 52.0520153,0.204100069 C52.473975,0.336344684 52.840132,0.532418346 53.1516331,0.791938846 C53.4627519,1.05222377 53.7077484,1.38015983 53.8866227,1.77651147 C54.0654969,2.1728631 54.1553162,2.63533704 54.1553162,3.16355108 L52.9406532,3.16355108 C52.9406532,2.44767199 52.7296734,1.91257818 52.3077137,1.55903405 C51.885754,1.20548992 51.3426338,1.02814454 50.6775886,1.02814454 C50.0385337,1.02814454 49.4824183,1.16268242 49.0092425,1.43099375 C48.5360667,1.69968728 48.1420083,2.04711605 47.8266852,2.47289785 C47.5113621,2.89906185 47.2747741,3.38293954 47.1169215,3.92414871 C46.9590688,4.46535789 46.8803336,5.01306463 46.8803336,5.56688673 C46.8803336,6.01025017 46.935754,6.41501042 47.0465949,6.78154969 C47.1574357,7.14808895 47.3233148,7.46150104 47.5453787,7.72140375 C47.7670605,7.98168867 48.0460737,8.18387769 48.3828006,8.32873523 C48.7195274,8.47359277 49.1177901,8.54621265 49.5779708,8.54621265 C50.3278666,8.54621265 50.9374913,8.34784573 51.4064628,7.9518763 C51.8750521,7.55552467 52.2075747,6.995205 52.4036484,6.27053509 L53.6183113,6.27053509 C53.3889854,7.2933287 52.9391244,8.09673384 52.2698749,8.68036831 Z" id="路径"></path>
                            <path d="M56.9045518,6.94781098 C56.9045518,7.20350938 56.9511814,7.43168867 57.045205,7.63196664 C57.1388464,7.83224461 57.2665045,7.99850591 57.4289437,8.13036831 C57.5906185,8.26261293 57.7740792,8.36504517 57.9785615,8.43728284 C58.1830438,8.50990271 58.3959347,8.54621265 58.6179986,8.54621265 C59.1037874,8.54621265 59.5043433,8.43728284 59.8196664,8.22018763 C60.1349896,8.00271022 60.3692842,7.68968033 60.5229326,7.28033356 L61.6095552,7.28033356 C61.5243224,7.64687283 61.3878735,7.96869354 61.2002085,8.24579569 C61.0125434,8.52289785 60.7866574,8.75298819 60.5225504,8.93606671 C60.2580612,9.11952745 59.9641418,9.25788742 59.64041,9.35152884 C59.316296,9.44517026 58.975747,9.49218207 58.6176164,9.49218207 C58.0718207,9.49218207 57.6181376,9.40886032 57.2558026,9.24298124 C56.8934677,9.07671994 56.6056637,8.86382905 56.3927728,8.60354413 C56.1794997,8.34364142 56.0304378,8.05813065 55.945205,7.74701181 C55.8599722,7.43589298 55.8171647,7.13547603 55.8171647,6.84576095 C55.8171647,6.21511466 55.9085129,5.63759555 56.0919736,5.11320361 C56.2750521,4.58881167 56.5223419,4.13933287 56.8334607,3.76438499 C57.1445796,3.38943711 57.5065323,3.09933982 57.9200834,2.89485754 C58.3332523,2.69037526 58.7659138,2.58794302 59.2176859,2.58794302 C60.1892634,2.58794302 60.8990271,2.84364142 61.3465949,3.35503822 C61.7941626,3.86643502 62.0177554,4.58690063 62.0177554,5.5156706 C62.0177554,5.68651842 62.0051425,5.84819319 61.9795344,6.00145935 C61.9539263,6.1547255 61.9325226,6.2785615 61.9157054,6.37220292 L56.9420083,6.37220292 C56.9175469,6.56025017 56.9045518,6.75211953 56.9045518,6.94781098 Z M60.8871786,4.72946491 C60.8401668,4.50396108 60.754934,4.3033009 60.6314802,4.12863099 C60.5076442,3.95396108 60.3436762,3.81369006 60.1391939,3.7066713 C59.9347116,3.60041696 59.6832175,3.54690757 59.3847116,3.54690757 C59.0693885,3.54690757 58.7857887,3.59621265 58.5346769,3.69405837 C58.2831828,3.79228631 58.0637943,3.92644197 57.8761293,4.09652536 C57.6884642,4.26737318 57.5309937,4.46535789 57.4033356,4.69124392 C57.2752953,4.91712995 57.1732453,5.15792217 57.0964211,5.41362057 L60.9318972,5.41362057 C60.9490966,5.18353023 60.9341904,4.95573315 60.8871786,4.72946491 Z" id="形状"></path>
                            <polygon id="路径" points="66.7747394 0.222828353 64.8568103 9.35152884 63.7828006 9.35152884 65.6877345 0.222828353"></polygon>
                            <polygon id="路径" points="70.8915219 0.222828353 68.9735928 9.35152884 67.899583 9.35152884 69.804517 0.222828353"></polygon>
                            <path d="M83.0243919,0.222828353 L84.6736275,9.35152884 L83.4207436,9.35152884 L82.9991661,6.60267547 L79.1506949,6.60267547 L77.5526755,9.35152884 L76.2103544,9.35152884 L81.695066,0.222828353 L83.0243919,0.222828353 Z M82.8455177,5.57988186 L82.1678596,1.29645587 L82.1422516,1.29645587 L79.7003127,5.57988186 L82.8455177,5.57988186 Z" id="形状"></path>
                            <path d="M89.0847116,2.74159138 L88.8802293,3.73877693 L88.9058374,3.73877693 C89.178353,3.35503822 89.5238707,3.0676164 89.9416261,2.87574705 C90.3589993,2.68387769 90.7981584,2.58794302 91.2583391,2.58794302 C91.8805768,2.58794302 92.3430507,2.72439194 92.6457609,2.99690757 C92.948089,3.27018763 93.0994441,3.70017373 93.0994441,4.28839472 C93.0994441,4.43363447 93.0822446,4.6209173 93.0482279,4.85100764 C93.0142113,5.08109798 92.9668172,5.32418346 92.9075747,5.57988186 L92.1022585,9.35152884 L91.0152536,9.35152884 L91.859173,5.49044475 C91.8675817,5.4224114 91.8801946,5.34329395 91.897394,5.25385685 C91.9145935,5.16441974 91.9314107,5.07039611 91.9486101,4.97255038 C91.9658096,4.87470466 91.9807158,4.78106324 91.9937109,4.69124392 C92.0063238,4.60180681 92.0128214,4.52727589 92.0128214,4.46765115 C92.0128214,4.15232801 91.9019805,3.91994441 91.6802988,3.77088256 C91.4586171,3.62182071 91.1857192,3.54690757 90.8619875,3.54690757 C90.5634816,3.54690757 90.2676511,3.61952745 89.9737318,3.76438499 C89.6794302,3.90924253 89.4302293,4.09270327 89.225747,4.31400278 C89.0296734,4.48446838 88.876025,4.69124392 88.7655664,4.93394719 C88.6547255,5.17703266 88.5652884,5.4304378 88.4968728,5.69454482 L87.7297776,9.35114663 L86.6557679,9.35114663 L88.0363099,2.74120917 L89.0847116,2.74120917 L89.0847116,2.74159138 Z" id="路径"></path>
                            <path d="M96.1104934,3.78349548 C96.2851633,3.51518416 96.5003475,3.29159138 96.7560459,3.11233495 C97.0117443,2.93307853 97.3014593,2.80121612 97.6255733,2.71598332 C97.9493051,2.63113273 98.286032,2.58832523 98.635754,2.58832523 C98.959868,2.58832523 99.2664003,2.61393329 99.5561154,2.66514941 C99.8458304,2.71636553 100.101529,2.80580264 100.323211,2.93346074 C100.544892,3.06150104 100.721473,3.23387769 100.853718,3.45135511 C100.98558,3.66845031 101.051703,3.94325921 101.051703,4.27578179 C101.051703,4.46344684 101.028006,4.66563586 100.981376,4.88311327 C100.934746,5.10059069 100.889646,5.2985754 100.84722,5.47783183 L100.425261,7.28071577 C100.400035,7.4171647 100.363725,7.57081306 100.316713,7.74089646 C100.269701,7.91174427 100.246386,8.07341904 100.246386,8.2266852 C100.246386,8.37995136 100.276199,8.48658791 100.335823,8.54621265 C100.395448,8.60583739 100.472272,8.63564976 100.566296,8.63564976 C100.617512,8.63564976 100.674844,8.62494788 100.738673,8.60354413 C100.802884,8.58252259 100.860215,8.56302988 100.911432,8.54621265 L100.74517,9.35191105 C100.659937,9.38592773 100.551008,9.41765115 100.419145,9.44784573 C100.286901,9.4776581 100.174149,9.49256428 100.080507,9.49256428 C99.7820014,9.49256428 99.5561154,9.41115358 99.4028492,9.2494788 C99.249583,9.08780403 99.1899583,8.86153579 99.223975,8.57182071 L99.1983669,8.54621265 C98.9682766,8.85312717 98.6823836,9.08780403 98.3418346,9.2494788 C98.0009034,9.41115358 97.5491313,9.49256428 96.9865184,9.49256428 C96.705212,9.49256428 96.443016,9.46045865 96.2003127,9.3966296 C95.9572272,9.33280056 95.7466296,9.226164 95.5673732,9.07710215 C95.388499,8.92804031 95.2455525,8.73617095 95.1389159,8.5018763 C95.0326616,8.26758165 94.9791522,7.97977762 94.9791522,7.63884642 C94.9791522,7.15305768 95.0834955,6.77390549 95.2925643,6.50100764 C95.5016331,6.22849201 95.7676511,6.02171647 96.0917651,5.88106324 C96.4154969,5.74041001 96.7736275,5.64447533 97.1657748,5.59325921 C97.55754,5.54204309 97.9370744,5.49961779 98.3036136,5.46560111 C98.5933287,5.43999305 98.8425295,5.41247394 99.0515983,5.38227936 C99.2602849,5.35246699 99.4330438,5.30354413 99.5694927,5.23512856 C99.7059416,5.16709521 99.8060806,5.06886727 99.8699097,4.94120917 C99.9341209,4.81316887 99.9658443,4.63849896 99.9658443,4.41681723 C99.9658443,4.23794302 99.9230368,4.09308548 99.8381862,3.98224461 C99.7529534,3.87140375 99.6463169,3.78387769 99.5186588,3.72004864 C99.3906185,3.6562196 99.247672,3.61150104 99.0902015,3.58589298 C98.9323489,3.56028492 98.781376,3.54728978 98.6365184,3.54728978 C98.4320361,3.54728978 98.2294649,3.56869354 98.0291869,3.61150104 C97.828909,3.65430855 97.6477415,3.72463516 97.4856845,3.82248089 C97.3236275,3.92070883 97.1871786,4.04416261 97.0763377,4.19322446 C96.9654969,4.34266852 96.892877,4.523836 96.8588603,4.73672689 L95.7718555,4.73672689 C95.8226894,4.36980542 95.9354413,4.05218902 96.1104934,3.78349548 Z M96.4174079,8.31612231 C96.6604934,8.46938846 96.9353023,8.54621265 97.2422168,8.54621265 C98.1029534,8.54621265 98.7206046,8.25649757 99.0959347,7.6766852 C99.2748089,7.42939541 99.3963516,7.16108409 99.4605629,6.8709868 C99.5243919,6.58127172 99.5947186,6.28314802 99.6715427,5.9762335 L99.6459347,5.9762335 C99.4926685,6.08669215 99.2985059,6.16580959 99.0642113,6.2128214 C98.8295344,6.25983322 98.5803336,6.29576095 98.3162265,6.32136901 C98.0517373,6.34697707 97.7857192,6.37870049 97.5170257,6.41730368 C97.2487144,6.45590688 97.00754,6.51744267 96.7946491,6.60267547 C96.5817582,6.68790827 96.406706,6.8090688 96.2706393,6.96692147 C96.1341904,7.12477415 96.0615705,7.34416261 96.0535432,7.62546908 C96.0531619,7.9323836 96.1743224,8.16247394 96.4174079,8.31612231 Z" id="形状"></path>
                            <polygon id="路径" points="105.948958 0.222828353 104.031028 9.35152884 102.957019 9.35152884 104.861953 0.222828353"></polygon>
                            <path d="M108.799861,11.0714732 C108.663412,11.2629604 108.513968,11.4292217 108.352293,11.5702571 C108.190236,11.7109104 108.007158,11.821369 107.802675,11.9023975 C107.598193,11.983426 107.359694,12.0239402 107.086796,12.0239402 C106.959138,12.0239402 106.826894,12.0090341 106.690827,11.9792217 C106.554378,11.9494093 106.435129,11.9088951 106.332696,11.8576789 L106.524566,10.9755386 C106.609798,11.0267547 106.712231,11.06918 106.83148,11.1035789 C106.951112,11.1375956 107.053162,11.154795 107.138395,11.154795 C107.385302,11.154795 107.585962,11.0886727 107.739229,10.9564281 C107.892495,10.8241835 108.033148,10.6518068 108.161188,10.4385337 L108.825851,9.35191105 L107.662404,2.74197359 L108.825851,2.74197359 L109.593329,7.99659486 L109.618937,7.99659486 L112.393398,2.74197359 L113.582453,2.74197359 L109.209972,10.464524 C109.072377,10.6770327 108.935928,10.8796039 108.799861,11.0714732 Z" id="路径"></path>
                            <path d="M118.70827,3.83471161 C118.435372,3.64284225 118.107436,3.54690757 117.723697,3.54690757 C117.56164,3.54690757 117.395379,3.55990271 117.224913,3.58551077 C117.054448,3.61111883 116.903092,3.65583739 116.77123,3.71966644 C116.638985,3.78349548 116.530056,3.86911049 116.445205,3.97536484 C116.359972,4.08200139 116.317547,4.22036136 116.317547,4.39082696 C116.317547,4.54409312 116.36647,4.67633773 116.464698,4.7871786 C116.562543,4.89801946 116.694788,5.00006949 116.861049,5.09409312 C117.027311,5.18773454 117.214593,5.2752606 117.423662,5.35590688 C117.632349,5.43693537 117.843329,5.52025712 118.056602,5.60510771 C118.277901,5.69913134 118.493085,5.80118138 118.702154,5.91202224 C118.910841,6.0228631 119.096595,6.14861015 119.25827,6.28926338 C119.420327,6.42991661 119.552571,6.5961779 119.654621,6.78766505 C119.757054,6.9795344 119.807887,7.20312717 119.807887,7.45920778 C119.807887,7.82574705 119.726859,8.13877693 119.564802,8.39906185 C119.402745,8.65934677 119.194058,8.86994441 118.93836,9.03200139 C118.682662,9.19405837 118.394858,9.3113968 118.07533,9.38325226 C117.755803,9.45587213 117.433982,9.49218207 117.11025,9.49218207 C116.726511,9.49218207 116.372967,9.45587213 116.048853,9.38325226 C115.725122,9.31101459 115.445726,9.18947186 115.211432,9.01900625 C114.976755,8.84854065 114.791383,8.62074357 114.655316,8.3352328 C114.518867,8.04972203 114.450452,7.69388464 114.450452,7.26733843 L115.524461,7.26733843 C115.507262,7.50583739 115.543572,7.70879083 115.633009,7.87466991 C115.722446,8.0409312 115.8459,8.17317582 116.003753,8.27102154 C116.161223,8.36924948 116.344684,8.43957609 116.55337,8.48200139 C116.762057,8.5248089 116.981445,8.54583044 117.211536,8.54583044 C117.39041,8.54583044 117.569666,8.52863099 117.748541,8.49461432 C117.927415,8.46059764 118.089472,8.40288395 118.234329,8.32185546 C118.379187,8.24082696 118.496525,8.13648367 118.585962,8.00844336 C118.6754,7.88040306 118.720118,7.72293259 118.720118,7.53526755 C118.720118,7.37321056 118.668902,7.23485059 118.566852,7.11980542 C118.46442,7.00476025 118.332175,6.90041696 118.1705,6.80639333 C118.008443,6.71275191 117.823072,6.62560806 117.614385,6.54419736 C117.405316,6.46355108 117.194719,6.37602502 116.981445,6.2823836 C116.759764,6.1971508 116.54458,6.10350938 116.335893,6.00107714 C116.126824,5.8990271 115.939541,5.77748436 115.773662,5.63683113 C115.607401,5.4961779 115.475156,5.33220987 115.377311,5.14454482 C115.279083,4.95726199 115.23016,4.73978457 115.23016,4.49249479 C115.23016,4.18558026 115.300869,3.91306463 115.44114,3.67456567 C115.581793,3.43606671 115.767165,3.23769979 115.997255,3.07984712 C116.227345,2.92237665 116.489159,2.80083391 116.783461,2.71560111 C117.07738,2.63075052 117.377797,2.58794302 117.684712,2.58794302 C117.991626,2.58794302 118.293954,2.62425295 118.59246,2.69649062 C118.890584,2.76911049 119.156984,2.88835997 119.391661,3.05462126 C119.625956,3.22088256 119.815532,3.43797776 119.960389,3.70628909 C120.105247,3.97498263 120.177867,4.30100764 120.177867,4.68436414 L119.090862,4.68436414 C119.108826,4.30979847 118.981167,4.02658096 118.70827,3.83471161 Z" id="路径"></path>
                            <path d="M124.384468,2.74159138 L123.003926,9.35152884 L121.929917,9.35152884 L123.297846,2.74159138 L124.384468,2.74159138 Z M123.540931,1.55253648 L123.822238,0.222828353 L124.921855,0.222828353 L124.640549,1.55253648 L123.540931,1.55253648 Z" id="形状"></path>
                            <path d="M130.252919,3.83471161 C129.980021,3.64284225 129.652085,3.54690757 129.268728,3.54690757 C129.106671,3.54690757 128.94041,3.55990271 128.769944,3.58551077 C128.599479,3.61111883 128.448124,3.65583739 128.316261,3.71966644 C128.184017,3.78349548 128.075087,3.86911049 127.990236,3.97536484 C127.905003,4.08200139 127.862578,4.22036136 127.862578,4.39082696 C127.862578,4.54409312 127.911501,4.67633773 128.009729,4.7871786 C128.107575,4.89801946 128.239819,5.00006949 128.406081,5.09409312 C128.572342,5.18773454 128.759625,5.2752606 128.968694,5.35590688 C129.17738,5.43693537 129.38836,5.52025712 129.601633,5.60510771 C129.822933,5.69913134 130.038117,5.80118138 130.247186,5.91202224 C130.455872,6.0228631 130.641244,6.14861015 130.803301,6.28926338 C130.965358,6.42991661 131.097603,6.5961779 131.199653,6.78766505 C131.302085,6.9795344 131.352919,7.20312717 131.352919,7.45920778 C131.352919,7.82574705 131.27189,8.13877693 131.109833,8.39906185 C130.947776,8.65896456 130.73909,8.86994441 130.483391,9.03200139 C130.227693,9.19405837 129.939889,9.3113968 129.620361,9.38325226 C129.300834,9.45587213 128.979013,9.49218207 128.655281,9.49218207 C128.271543,9.49218207 127.917999,9.45587213 127.593885,9.38325226 C127.269771,9.31101459 126.990757,9.18947186 126.756463,9.01900625 C126.521786,8.84854065 126.336414,8.62074357 126.200347,8.3352328 C126.063899,8.04972203 125.995483,7.69388464 125.995483,7.26733843 L127.069493,7.26733843 C127.052293,7.50583739 127.088603,7.70879083 127.17804,7.87466991 C127.267477,8.0409312 127.390931,8.17317582 127.548784,8.27102154 C127.706254,8.36924948 127.889715,8.43957609 128.098402,8.48200139 C128.307088,8.5248089 128.526477,8.54583044 128.756567,8.54583044 C128.935441,8.54583044 129.114698,8.52863099 129.293572,8.49461432 C129.472828,8.46059764 129.634503,8.40288395 129.779361,8.32185546 C129.924218,8.24082696 130.041557,8.13648367 130.130994,8.00844336 C130.220431,7.88040306 130.265149,7.72293259 130.265149,7.53526755 C130.265149,7.37321056 130.213933,7.23485059 130.111883,7.11980542 C130.009451,7.00476025 129.877206,6.90041696 129.715532,6.80639333 C129.553475,6.71275191 129.368103,6.62560806 129.159416,6.54419736 C128.950347,6.46355108 128.739368,6.37602502 128.526477,6.2823836 C128.304795,6.1971508 128.089611,6.10350938 127.880924,6.00107714 C127.671855,5.8990271 127.484573,5.77748436 127.318694,5.63683113 C127.152432,5.4961779 127.020188,5.33220987 126.922342,5.14454482 C126.824114,4.95726199 126.775191,4.73978457 126.775191,4.49249479 C126.775191,4.18558026 126.845518,3.91306463 126.986171,3.67456567 C127.126824,3.43606671 127.312196,3.23769979 127.542286,3.07984712 C127.772377,2.92237665 128.03419,2.80083391 128.328492,2.71560111 C128.622411,2.63075052 128.922828,2.58794302 129.229743,2.58794302 C129.536657,2.58794302 129.838985,2.62425295 130.137491,2.69649062 C130.435615,2.76911049 130.702015,2.88835997 130.936692,3.05462126 C131.170987,3.22088256 131.360563,3.43797776 131.50542,3.70628909 C131.650278,3.97498263 131.722898,4.30100764 131.722898,4.68436414 L130.635893,4.68436414 C130.653857,4.30979847 130.525817,4.02658096 130.252919,3.83471161 Z" id="路径"></path>
                        </g>
                    </g>
                </g>
            </g>
        </g>
    </g>
</svg>